<mxfile host="Electron" modified="2023-04-19T07:18:14.859Z" agent="Mozilla/5.0 (Windows NT 10.0; Win64; x64) AppleWebKit/537.36 (KHTML, like Gecko) draw.io/21.1.2 Chrome/106.0.5249.199 Electron/21.4.3 Safari/537.36" etag="syl2gIxRPP_YJfqjWN8x" version="21.1.2" type="device">
  <diagram name="第 1 页" id="0ufjDXtErYXiCVYPZpMQ">
    <mxGraphModel dx="723" dy="649" grid="1" gridSize="10" guides="1" tooltips="1" connect="1" arrows="1" fold="1" page="1" pageScale="1" pageWidth="827" pageHeight="1169" math="0" shadow="0">
      <root>
        <mxCell id="0" />
        <mxCell id="1" parent="0" />
        <mxCell id="M16_s9FFf0gk96BNt9Zh-10" value="" style="verticalLabelPosition=bottom;verticalAlign=top;html=1;shape=mxgraph.basic.rect;fillColor2=none;strokeWidth=1;size=20;indent=5;fillColor=#fff2cc;strokeColor=#d6b656;" vertex="1" parent="1">
          <mxGeometry x="1200" y="750" width="240" height="170" as="geometry" />
        </mxCell>
        <mxCell id="M16_s9FFf0gk96BNt9Zh-4" value="" style="verticalLabelPosition=bottom;verticalAlign=top;html=1;shape=mxgraph.basic.rect;fillColor2=none;strokeWidth=1;size=20;indent=5;fillColor=#f8cecc;strokeColor=#b85450;" vertex="1" parent="1">
          <mxGeometry x="840" y="750" width="240" height="170" as="geometry" />
        </mxCell>
        <mxCell id="M16_s9FFf0gk96BNt9Zh-40" value="" style="verticalLabelPosition=bottom;verticalAlign=top;html=1;shape=mxgraph.basic.rect;fillColor2=none;strokeWidth=1;size=20;indent=5;fillColor=#dae8fc;strokeColor=#6c8ebf;" vertex="1" parent="1">
          <mxGeometry x="1335" y="810" width="80" height="30" as="geometry" />
        </mxCell>
        <mxCell id="M16_s9FFf0gk96BNt9Zh-34" value="" style="verticalLabelPosition=bottom;verticalAlign=top;html=1;shape=mxgraph.basic.rect;fillColor2=none;strokeWidth=1;size=20;indent=5;fillColor=#dae8fc;strokeColor=#6c8ebf;" vertex="1" parent="1">
          <mxGeometry x="975" y="810" width="80" height="30" as="geometry" />
        </mxCell>
        <mxCell id="M16_s9FFf0gk96BNt9Zh-21" value="" style="verticalLabelPosition=bottom;verticalAlign=top;html=1;shape=mxgraph.basic.rect;fillColor2=none;strokeWidth=1;size=20;indent=5;fillColor=none;" vertex="1" parent="1">
          <mxGeometry x="1270" y="870" width="100" height="30" as="geometry" />
        </mxCell>
        <mxCell id="NxNI-8EfboaAL2UsRdys-78" value="" style="shape=ext;double=1;rounded=1;whiteSpace=wrap;html=1;" parent="1" vertex="1">
          <mxGeometry x="210" y="320" width="380" height="390" as="geometry" />
        </mxCell>
        <mxCell id="NxNI-8EfboaAL2UsRdys-74" value="被控端设备4" style="rounded=1;whiteSpace=wrap;html=1;fontSize=15;fillColor=#ffe6cc;strokeColor=#d79b00;" parent="1" vertex="1">
          <mxGeometry x="437" y="620" width="120" height="60" as="geometry" />
        </mxCell>
        <mxCell id="NxNI-8EfboaAL2UsRdys-73" value="被控端设备3" style="rounded=1;whiteSpace=wrap;html=1;fontSize=15;fillColor=#ffe6cc;strokeColor=#d79b00;" parent="1" vertex="1">
          <mxGeometry x="437" y="540" width="120" height="60" as="geometry" />
        </mxCell>
        <mxCell id="NxNI-8EfboaAL2UsRdys-72" value="被控端设备2" style="rounded=1;whiteSpace=wrap;html=1;fontSize=15;fillColor=#ffe6cc;strokeColor=#d79b00;" parent="1" vertex="1">
          <mxGeometry x="437" y="470" width="120" height="60" as="geometry" />
        </mxCell>
        <mxCell id="NxNI-8EfboaAL2UsRdys-71" value="被控端设备1" style="rounded=1;whiteSpace=wrap;html=1;fontSize=15;fillColor=#ffe6cc;strokeColor=#d79b00;" parent="1" vertex="1">
          <mxGeometry x="437" y="390" width="120" height="60" as="geometry" />
        </mxCell>
        <mxCell id="NxNI-8EfboaAL2UsRdys-70" value="主控端设备" style="rounded=1;whiteSpace=wrap;html=1;fontSize=15;fillColor=#f8cecc;strokeColor=#b85450;" parent="1" vertex="1">
          <mxGeometry x="260" y="390" width="120" height="60" as="geometry" />
        </mxCell>
        <mxCell id="NxNI-8EfboaAL2UsRdys-79" value="&lt;font style=&quot;font-size: 18px;&quot;&gt;局域网&lt;/font&gt;" style="text;html=1;align=center;verticalAlign=middle;resizable=0;points=[];autosize=1;strokeColor=none;fillColor=none;" parent="1" vertex="1">
          <mxGeometry x="260" y="340" width="80" height="40" as="geometry" />
        </mxCell>
        <mxCell id="NxNI-8EfboaAL2UsRdys-85" value="" style="verticalLabelPosition=bottom;verticalAlign=top;html=1;shape=mxgraph.basic.rect;fillColor2=none;strokeWidth=1;size=20;indent=5;fillColor=none;" parent="1" vertex="1">
          <mxGeometry x="80" y="880" width="280" height="270" as="geometry" />
        </mxCell>
        <mxCell id="NxNI-8EfboaAL2UsRdys-86" value="主控端设备" style="text;html=1;align=center;verticalAlign=middle;resizable=0;points=[];autosize=1;strokeColor=none;fillColor=none;" parent="1" vertex="1">
          <mxGeometry x="80" y="880" width="80" height="30" as="geometry" />
        </mxCell>
        <mxCell id="NxNI-8EfboaAL2UsRdys-88" value="" style="verticalLabelPosition=bottom;verticalAlign=top;html=1;shape=mxgraph.basic.rect;fillColor2=none;strokeWidth=1;size=20;indent=5;fillColor=none;" parent="1" vertex="1">
          <mxGeometry x="90" y="930" width="260" height="210" as="geometry" />
        </mxCell>
        <mxCell id="NxNI-8EfboaAL2UsRdys-89" value="主控端系统程序" style="text;html=1;align=center;verticalAlign=middle;resizable=0;points=[];autosize=1;strokeColor=none;fillColor=none;" parent="1" vertex="1">
          <mxGeometry x="90" y="930" width="110" height="30" as="geometry" />
        </mxCell>
        <mxCell id="NxNI-8EfboaAL2UsRdys-90" value="" style="verticalLabelPosition=bottom;verticalAlign=top;html=1;shape=mxgraph.basic.rect;fillColor2=none;strokeWidth=1;size=20;indent=5;fillColor=none;" parent="1" vertex="1">
          <mxGeometry x="100" y="960" width="240" height="60" as="geometry" />
        </mxCell>
        <mxCell id="NxNI-8EfboaAL2UsRdys-91" value="图形交互界面" style="text;html=1;align=center;verticalAlign=middle;resizable=0;points=[];autosize=1;strokeColor=none;fillColor=none;" parent="1" vertex="1">
          <mxGeometry x="170" y="975" width="100" height="30" as="geometry" />
        </mxCell>
        <mxCell id="M16_s9FFf0gk96BNt9Zh-5" value="主控端系统程序" style="text;html=1;align=center;verticalAlign=middle;resizable=0;points=[];autosize=1;strokeColor=none;fillColor=none;" vertex="1" parent="1">
          <mxGeometry x="840" y="750" width="110" height="30" as="geometry" />
        </mxCell>
        <mxCell id="M16_s9FFf0gk96BNt9Zh-6" value="" style="verticalLabelPosition=bottom;verticalAlign=top;html=1;shape=mxgraph.basic.rect;fillColor2=none;strokeWidth=1;size=20;indent=5;fillColor=none;" vertex="1" parent="1">
          <mxGeometry x="850" y="780" width="220" height="70" as="geometry" />
        </mxCell>
        <mxCell id="M16_s9FFf0gk96BNt9Zh-7" value="应用层" style="text;html=1;align=center;verticalAlign=middle;resizable=0;points=[];autosize=1;strokeColor=none;fillColor=none;" vertex="1" parent="1">
          <mxGeometry x="850" y="780" width="60" height="30" as="geometry" />
        </mxCell>
        <mxCell id="M16_s9FFf0gk96BNt9Zh-8" value="" style="verticalLabelPosition=bottom;verticalAlign=top;html=1;shape=mxgraph.basic.rect;fillColor2=none;strokeWidth=1;size=20;indent=5;fillColor=none;" vertex="1" parent="1">
          <mxGeometry x="850" y="860" width="220" height="50" as="geometry" />
        </mxCell>
        <mxCell id="M16_s9FFf0gk96BNt9Zh-9" value="传输层" style="text;html=1;align=center;verticalAlign=middle;resizable=0;points=[];autosize=1;strokeColor=none;fillColor=none;" vertex="1" parent="1">
          <mxGeometry x="850" y="855" width="60" height="30" as="geometry" />
        </mxCell>
        <mxCell id="M16_s9FFf0gk96BNt9Zh-11" value="被控端系统程序" style="text;html=1;align=center;verticalAlign=middle;resizable=0;points=[];autosize=1;strokeColor=none;fillColor=none;" vertex="1" parent="1">
          <mxGeometry x="1200" y="750" width="110" height="30" as="geometry" />
        </mxCell>
        <mxCell id="M16_s9FFf0gk96BNt9Zh-12" value="" style="verticalLabelPosition=bottom;verticalAlign=top;html=1;shape=mxgraph.basic.rect;fillColor2=none;strokeWidth=1;size=20;indent=5;fillColor=none;" vertex="1" parent="1">
          <mxGeometry x="1210" y="780" width="220" height="70" as="geometry" />
        </mxCell>
        <mxCell id="M16_s9FFf0gk96BNt9Zh-13" value="应用层" style="text;html=1;align=center;verticalAlign=middle;resizable=0;points=[];autosize=1;strokeColor=none;fillColor=none;" vertex="1" parent="1">
          <mxGeometry x="1210" y="780" width="60" height="30" as="geometry" />
        </mxCell>
        <mxCell id="M16_s9FFf0gk96BNt9Zh-14" value="" style="verticalLabelPosition=bottom;verticalAlign=top;html=1;shape=mxgraph.basic.rect;fillColor2=none;strokeWidth=1;size=20;indent=5;fillColor=none;" vertex="1" parent="1">
          <mxGeometry x="1210" y="860" width="220" height="50" as="geometry" />
        </mxCell>
        <mxCell id="M16_s9FFf0gk96BNt9Zh-15" value="传输层" style="text;html=1;align=center;verticalAlign=middle;resizable=0;points=[];autosize=1;strokeColor=none;fillColor=none;" vertex="1" parent="1">
          <mxGeometry x="1210" y="855" width="60" height="30" as="geometry" />
        </mxCell>
        <mxCell id="M16_s9FFf0gk96BNt9Zh-17" value="TCP/IP" style="text;html=1;align=center;verticalAlign=middle;resizable=0;points=[];autosize=1;strokeColor=none;fillColor=none;" vertex="1" parent="1">
          <mxGeometry x="570" y="1100" width="60" height="30" as="geometry" />
        </mxCell>
        <mxCell id="M16_s9FFf0gk96BNt9Zh-16" value="" style="verticalLabelPosition=bottom;verticalAlign=top;html=1;shape=mxgraph.basic.rect;fillColor2=none;strokeWidth=1;size=20;indent=5;fillColor=none;" vertex="1" parent="1">
          <mxGeometry x="570" y="1100" width="60" height="30" as="geometry" />
        </mxCell>
        <mxCell id="M16_s9FFf0gk96BNt9Zh-18" value="TCP/IP" style="text;html=1;align=center;verticalAlign=middle;resizable=0;points=[];autosize=1;strokeColor=none;fillColor=none;" vertex="1" parent="1">
          <mxGeometry x="930" y="870" width="60" height="30" as="geometry" />
        </mxCell>
        <mxCell id="M16_s9FFf0gk96BNt9Zh-22" style="edgeStyle=orthogonalEdgeStyle;rounded=0;orthogonalLoop=1;jettySize=auto;html=1;" edge="1" parent="1" source="M16_s9FFf0gk96BNt9Zh-19" target="M16_s9FFf0gk96BNt9Zh-21">
          <mxGeometry relative="1" as="geometry">
            <Array as="points">
              <mxPoint x="1170" y="880" />
              <mxPoint x="1170" y="880" />
            </Array>
          </mxGeometry>
        </mxCell>
        <mxCell id="M16_s9FFf0gk96BNt9Zh-19" value="" style="verticalLabelPosition=bottom;verticalAlign=top;html=1;shape=mxgraph.basic.rect;fillColor2=none;strokeWidth=1;size=20;indent=5;fillColor=none;" vertex="1" parent="1">
          <mxGeometry x="910" y="870" width="100" height="30" as="geometry" />
        </mxCell>
        <mxCell id="M16_s9FFf0gk96BNt9Zh-48" style="edgeStyle=none;shape=connector;rounded=0;orthogonalLoop=1;jettySize=auto;html=1;entryX=0.565;entryY=0.968;entryDx=0;entryDy=0;entryPerimeter=0;labelBackgroundColor=default;strokeColor=default;fontFamily=Helvetica;fontSize=11;fontColor=default;endArrow=classic;exitX=1.017;exitY=0.015;exitDx=0;exitDy=0;exitPerimeter=0;" edge="1" parent="1" source="M16_s9FFf0gk96BNt9Zh-20" target="M16_s9FFf0gk96BNt9Zh-38">
          <mxGeometry relative="1" as="geometry" />
        </mxCell>
        <mxCell id="M16_s9FFf0gk96BNt9Zh-20" value="TCP/IP" style="text;html=1;align=center;verticalAlign=middle;resizable=0;points=[];autosize=1;strokeColor=none;fillColor=none;" vertex="1" parent="1">
          <mxGeometry x="1290" y="870" width="60" height="30" as="geometry" />
        </mxCell>
        <mxCell id="M16_s9FFf0gk96BNt9Zh-23" style="edgeStyle=orthogonalEdgeStyle;rounded=0;orthogonalLoop=1;jettySize=auto;html=1;" edge="1" parent="1" source="M16_s9FFf0gk96BNt9Zh-21" target="M16_s9FFf0gk96BNt9Zh-19">
          <mxGeometry relative="1" as="geometry" />
        </mxCell>
        <mxCell id="M16_s9FFf0gk96BNt9Zh-24" value="UDP 或 TCP" style="text;html=1;align=center;verticalAlign=middle;resizable=0;points=[];autosize=1;strokeColor=none;fillColor=none;" vertex="1" parent="1">
          <mxGeometry x="1097" y="850" width="90" height="30" as="geometry" />
        </mxCell>
        <mxCell id="M16_s9FFf0gk96BNt9Zh-25" value="数据交换协议" style="text;html=1;align=center;verticalAlign=middle;resizable=0;points=[];autosize=1;strokeColor=none;fillColor=none;" vertex="1" parent="1">
          <mxGeometry x="820" y="1100" width="100" height="30" as="geometry" />
        </mxCell>
        <mxCell id="M16_s9FFf0gk96BNt9Zh-31" style="edgeStyle=orthogonalEdgeStyle;rounded=0;orthogonalLoop=1;jettySize=auto;html=1;" edge="1" parent="1" source="M16_s9FFf0gk96BNt9Zh-26" target="M16_s9FFf0gk96BNt9Zh-29">
          <mxGeometry relative="1" as="geometry" />
        </mxCell>
        <mxCell id="M16_s9FFf0gk96BNt9Zh-26" value="" style="verticalLabelPosition=bottom;verticalAlign=top;html=1;shape=mxgraph.basic.rect;fillColor2=none;strokeWidth=1;size=20;indent=5;fillColor=none;" vertex="1" parent="1">
          <mxGeometry x="830" y="1100" width="80" height="30" as="geometry" />
        </mxCell>
        <mxCell id="M16_s9FFf0gk96BNt9Zh-28" value="处理传输内容" style="text;html=1;align=center;verticalAlign=middle;resizable=0;points=[];autosize=1;strokeColor=none;fillColor=none;" vertex="1" parent="1">
          <mxGeometry x="710" y="1100" width="100" height="30" as="geometry" />
        </mxCell>
        <mxCell id="M16_s9FFf0gk96BNt9Zh-30" style="edgeStyle=orthogonalEdgeStyle;rounded=0;orthogonalLoop=1;jettySize=auto;html=1;" edge="1" parent="1" source="M16_s9FFf0gk96BNt9Zh-29" target="M16_s9FFf0gk96BNt9Zh-26">
          <mxGeometry relative="1" as="geometry">
            <Array as="points">
              <mxPoint x="810" y="1110" />
              <mxPoint x="810" y="1110" />
            </Array>
          </mxGeometry>
        </mxCell>
        <mxCell id="M16_s9FFf0gk96BNt9Zh-29" value="" style="verticalLabelPosition=bottom;verticalAlign=top;html=1;shape=mxgraph.basic.rect;fillColor2=none;strokeWidth=1;size=20;indent=5;fillColor=none;" vertex="1" parent="1">
          <mxGeometry x="720" y="1100" width="80" height="30" as="geometry" />
        </mxCell>
        <mxCell id="M16_s9FFf0gk96BNt9Zh-32" value="数据交换协议" style="text;html=1;align=center;verticalAlign=middle;resizable=0;points=[];autosize=1;strokeColor=none;fillColor=none;" vertex="1" parent="1">
          <mxGeometry x="965" y="810" width="100" height="30" as="geometry" />
        </mxCell>
        <mxCell id="M16_s9FFf0gk96BNt9Zh-33" style="edgeStyle=orthogonalEdgeStyle;rounded=0;orthogonalLoop=1;jettySize=auto;html=1;" edge="1" parent="1" source="M16_s9FFf0gk96BNt9Zh-34" target="M16_s9FFf0gk96BNt9Zh-37">
          <mxGeometry relative="1" as="geometry" />
        </mxCell>
        <mxCell id="M16_s9FFf0gk96BNt9Zh-46" style="rounded=0;orthogonalLoop=1;jettySize=auto;html=1;exitX=0.537;exitY=1.017;exitDx=0;exitDy=0;exitPerimeter=0;entryX=0.822;entryY=0.017;entryDx=0;entryDy=0;entryPerimeter=0;" edge="1" parent="1" source="M16_s9FFf0gk96BNt9Zh-34" target="M16_s9FFf0gk96BNt9Zh-19">
          <mxGeometry relative="1" as="geometry" />
        </mxCell>
        <mxCell id="M16_s9FFf0gk96BNt9Zh-35" value="处理传输内容" style="text;html=1;align=center;verticalAlign=middle;resizable=0;points=[];autosize=1;strokeColor=none;fillColor=none;" vertex="1" parent="1">
          <mxGeometry x="855" y="810" width="100" height="30" as="geometry" />
        </mxCell>
        <mxCell id="M16_s9FFf0gk96BNt9Zh-36" style="edgeStyle=orthogonalEdgeStyle;rounded=0;orthogonalLoop=1;jettySize=auto;html=1;" edge="1" parent="1" source="M16_s9FFf0gk96BNt9Zh-37" target="M16_s9FFf0gk96BNt9Zh-34">
          <mxGeometry relative="1" as="geometry">
            <Array as="points">
              <mxPoint x="955" y="820" />
              <mxPoint x="955" y="820" />
            </Array>
          </mxGeometry>
        </mxCell>
        <mxCell id="M16_s9FFf0gk96BNt9Zh-37" value="" style="verticalLabelPosition=bottom;verticalAlign=top;html=1;shape=mxgraph.basic.rect;fillColor2=none;strokeWidth=1;size=20;indent=5;fillColor=none;" vertex="1" parent="1">
          <mxGeometry x="865" y="810" width="80" height="30" as="geometry" />
        </mxCell>
        <mxCell id="M16_s9FFf0gk96BNt9Zh-47" style="rounded=0;orthogonalLoop=1;jettySize=auto;html=1;" edge="1" parent="1" source="M16_s9FFf0gk96BNt9Zh-38" target="M16_s9FFf0gk96BNt9Zh-20">
          <mxGeometry relative="1" as="geometry" />
        </mxCell>
        <mxCell id="M16_s9FFf0gk96BNt9Zh-38" value="数据交换协议" style="text;html=1;align=center;verticalAlign=middle;resizable=0;points=[];autosize=1;strokeColor=none;fillColor=none;" vertex="1" parent="1">
          <mxGeometry x="1325" y="810" width="100" height="30" as="geometry" />
        </mxCell>
        <mxCell id="M16_s9FFf0gk96BNt9Zh-39" style="edgeStyle=orthogonalEdgeStyle;rounded=0;orthogonalLoop=1;jettySize=auto;html=1;" edge="1" parent="1" source="M16_s9FFf0gk96BNt9Zh-40" target="M16_s9FFf0gk96BNt9Zh-43">
          <mxGeometry relative="1" as="geometry" />
        </mxCell>
        <mxCell id="M16_s9FFf0gk96BNt9Zh-41" value="处理传输内容" style="text;html=1;align=center;verticalAlign=middle;resizable=0;points=[];autosize=1;strokeColor=none;fillColor=none;" vertex="1" parent="1">
          <mxGeometry x="1215" y="810" width="100" height="30" as="geometry" />
        </mxCell>
        <mxCell id="M16_s9FFf0gk96BNt9Zh-42" style="edgeStyle=orthogonalEdgeStyle;rounded=0;orthogonalLoop=1;jettySize=auto;html=1;" edge="1" parent="1" source="M16_s9FFf0gk96BNt9Zh-43" target="M16_s9FFf0gk96BNt9Zh-40">
          <mxGeometry relative="1" as="geometry">
            <Array as="points">
              <mxPoint x="1315" y="820" />
              <mxPoint x="1315" y="820" />
            </Array>
          </mxGeometry>
        </mxCell>
        <mxCell id="M16_s9FFf0gk96BNt9Zh-43" value="" style="verticalLabelPosition=bottom;verticalAlign=top;html=1;shape=mxgraph.basic.rect;fillColor2=none;strokeWidth=1;size=20;indent=5;fillColor=none;" vertex="1" parent="1">
          <mxGeometry x="1225" y="810" width="80" height="30" as="geometry" />
        </mxCell>
        <mxCell id="M16_s9FFf0gk96BNt9Zh-44" style="rounded=0;orthogonalLoop=1;jettySize=auto;html=1;" edge="1" parent="1" source="M16_s9FFf0gk96BNt9Zh-19" target="M16_s9FFf0gk96BNt9Zh-34">
          <mxGeometry relative="1" as="geometry" />
        </mxCell>
        <mxCell id="M16_s9FFf0gk96BNt9Zh-49" value="" style="verticalLabelPosition=bottom;verticalAlign=top;html=1;shape=mxgraph.basic.rect;fillColor2=none;strokeWidth=1;size=20;indent=5;fillColor=#fff2cc;strokeColor=#d6b656;" vertex="1" parent="1">
          <mxGeometry x="1200" y="960" width="240" height="170" as="geometry" />
        </mxCell>
        <mxCell id="M16_s9FFf0gk96BNt9Zh-50" value="" style="verticalLabelPosition=bottom;verticalAlign=top;html=1;shape=mxgraph.basic.rect;fillColor2=none;strokeWidth=1;size=20;indent=5;fillColor=#dae8fc;strokeColor=#6c8ebf;" vertex="1" parent="1">
          <mxGeometry x="1335" y="1020" width="80" height="30" as="geometry" />
        </mxCell>
        <mxCell id="M16_s9FFf0gk96BNt9Zh-51" value="" style="verticalLabelPosition=bottom;verticalAlign=top;html=1;shape=mxgraph.basic.rect;fillColor2=none;strokeWidth=1;size=20;indent=5;fillColor=none;" vertex="1" parent="1">
          <mxGeometry x="1270" y="1080" width="100" height="30" as="geometry" />
        </mxCell>
        <mxCell id="M16_s9FFf0gk96BNt9Zh-52" value="被控端系统程序" style="text;html=1;align=center;verticalAlign=middle;resizable=0;points=[];autosize=1;strokeColor=none;fillColor=none;" vertex="1" parent="1">
          <mxGeometry x="1200" y="960" width="110" height="30" as="geometry" />
        </mxCell>
        <mxCell id="M16_s9FFf0gk96BNt9Zh-53" value="" style="verticalLabelPosition=bottom;verticalAlign=top;html=1;shape=mxgraph.basic.rect;fillColor2=none;strokeWidth=1;size=20;indent=5;fillColor=none;" vertex="1" parent="1">
          <mxGeometry x="1210" y="990" width="220" height="70" as="geometry" />
        </mxCell>
        <mxCell id="M16_s9FFf0gk96BNt9Zh-54" value="应用层" style="text;html=1;align=center;verticalAlign=middle;resizable=0;points=[];autosize=1;strokeColor=none;fillColor=none;" vertex="1" parent="1">
          <mxGeometry x="1210" y="990" width="60" height="30" as="geometry" />
        </mxCell>
        <mxCell id="M16_s9FFf0gk96BNt9Zh-55" value="" style="verticalLabelPosition=bottom;verticalAlign=top;html=1;shape=mxgraph.basic.rect;fillColor2=none;strokeWidth=1;size=20;indent=5;fillColor=none;" vertex="1" parent="1">
          <mxGeometry x="1210" y="1070" width="220" height="50" as="geometry" />
        </mxCell>
        <mxCell id="M16_s9FFf0gk96BNt9Zh-56" value="传输层" style="text;html=1;align=center;verticalAlign=middle;resizable=0;points=[];autosize=1;strokeColor=none;fillColor=none;" vertex="1" parent="1">
          <mxGeometry x="1210" y="1065" width="60" height="30" as="geometry" />
        </mxCell>
        <mxCell id="M16_s9FFf0gk96BNt9Zh-57" style="edgeStyle=none;shape=connector;rounded=0;orthogonalLoop=1;jettySize=auto;html=1;entryX=0.565;entryY=0.968;entryDx=0;entryDy=0;entryPerimeter=0;labelBackgroundColor=default;strokeColor=default;fontFamily=Helvetica;fontSize=11;fontColor=default;endArrow=classic;exitX=1.017;exitY=0.015;exitDx=0;exitDy=0;exitPerimeter=0;" edge="1" parent="1" source="M16_s9FFf0gk96BNt9Zh-58" target="M16_s9FFf0gk96BNt9Zh-60">
          <mxGeometry relative="1" as="geometry" />
        </mxCell>
        <mxCell id="M16_s9FFf0gk96BNt9Zh-58" value="TCP/IP" style="text;html=1;align=center;verticalAlign=middle;resizable=0;points=[];autosize=1;strokeColor=none;fillColor=none;" vertex="1" parent="1">
          <mxGeometry x="1290" y="1080" width="60" height="30" as="geometry" />
        </mxCell>
        <mxCell id="M16_s9FFf0gk96BNt9Zh-59" style="rounded=0;orthogonalLoop=1;jettySize=auto;html=1;" edge="1" parent="1" source="M16_s9FFf0gk96BNt9Zh-60" target="M16_s9FFf0gk96BNt9Zh-58">
          <mxGeometry relative="1" as="geometry" />
        </mxCell>
        <mxCell id="M16_s9FFf0gk96BNt9Zh-60" value="数据交换协议" style="text;html=1;align=center;verticalAlign=middle;resizable=0;points=[];autosize=1;strokeColor=none;fillColor=none;" vertex="1" parent="1">
          <mxGeometry x="1325" y="1020" width="100" height="30" as="geometry" />
        </mxCell>
        <mxCell id="M16_s9FFf0gk96BNt9Zh-61" style="edgeStyle=orthogonalEdgeStyle;rounded=0;orthogonalLoop=1;jettySize=auto;html=1;" edge="1" parent="1" source="M16_s9FFf0gk96BNt9Zh-50" target="M16_s9FFf0gk96BNt9Zh-64">
          <mxGeometry relative="1" as="geometry" />
        </mxCell>
        <mxCell id="M16_s9FFf0gk96BNt9Zh-62" value="处理传输内容" style="text;html=1;align=center;verticalAlign=middle;resizable=0;points=[];autosize=1;strokeColor=none;fillColor=none;" vertex="1" parent="1">
          <mxGeometry x="1215" y="1020" width="100" height="30" as="geometry" />
        </mxCell>
        <mxCell id="M16_s9FFf0gk96BNt9Zh-63" style="edgeStyle=orthogonalEdgeStyle;rounded=0;orthogonalLoop=1;jettySize=auto;html=1;" edge="1" parent="1" source="M16_s9FFf0gk96BNt9Zh-64" target="M16_s9FFf0gk96BNt9Zh-50">
          <mxGeometry relative="1" as="geometry">
            <Array as="points">
              <mxPoint x="1315" y="1030" />
              <mxPoint x="1315" y="1030" />
            </Array>
          </mxGeometry>
        </mxCell>
        <mxCell id="M16_s9FFf0gk96BNt9Zh-64" value="" style="verticalLabelPosition=bottom;verticalAlign=top;html=1;shape=mxgraph.basic.rect;fillColor2=none;strokeWidth=1;size=20;indent=5;fillColor=none;" vertex="1" parent="1">
          <mxGeometry x="1225" y="1020" width="80" height="30" as="geometry" />
        </mxCell>
        <mxCell id="M16_s9FFf0gk96BNt9Zh-66" style="edgeStyle=orthogonalEdgeStyle;rounded=0;orthogonalLoop=1;jettySize=auto;html=1;" edge="1" parent="1">
          <mxGeometry relative="1" as="geometry">
            <mxPoint x="970" y="1094.33" as="sourcePoint" />
            <mxPoint x="1230" y="1094.33" as="targetPoint" />
            <Array as="points">
              <mxPoint x="1130" y="1094.33" />
              <mxPoint x="1130" y="1094.33" />
            </Array>
          </mxGeometry>
        </mxCell>
        <mxCell id="M16_s9FFf0gk96BNt9Zh-67" style="edgeStyle=orthogonalEdgeStyle;rounded=0;orthogonalLoop=1;jettySize=auto;html=1;" edge="1" parent="1">
          <mxGeometry relative="1" as="geometry">
            <mxPoint x="1230" y="1099.33" as="sourcePoint" />
            <mxPoint x="970" y="1099.33" as="targetPoint" />
          </mxGeometry>
        </mxCell>
        <mxCell id="M16_s9FFf0gk96BNt9Zh-69" value="" style="verticalLabelPosition=bottom;verticalAlign=top;html=1;shape=mxgraph.basic.rect;fillColor2=none;strokeWidth=1;size=20;indent=5;fillColor=#f8cecc;strokeColor=#b85450;align=center;" vertex="1" parent="1">
          <mxGeometry x="820" y="280" width="370" height="260" as="geometry" />
        </mxCell>
        <mxCell id="M16_s9FFf0gk96BNt9Zh-70" value="" style="verticalLabelPosition=bottom;verticalAlign=top;html=1;shape=mxgraph.basic.rect;fillColor2=none;strokeWidth=1;size=20;indent=5;fillColor=#dae8fc;strokeColor=#6c8ebf;" vertex="1" parent="1">
          <mxGeometry x="955" y="340" width="80" height="30" as="geometry" />
        </mxCell>
        <mxCell id="M16_s9FFf0gk96BNt9Zh-72" value="" style="verticalLabelPosition=bottom;verticalAlign=top;html=1;shape=mxgraph.basic.rect;fillColor2=none;strokeWidth=1;size=20;indent=5;fillColor=none;" vertex="1" parent="1">
          <mxGeometry x="830" y="310" width="350" height="70" as="geometry" />
        </mxCell>
        <mxCell id="M16_s9FFf0gk96BNt9Zh-73" value="应用层" style="text;html=1;align=center;verticalAlign=middle;resizable=0;points=[];autosize=1;strokeColor=none;fillColor=none;" vertex="1" parent="1">
          <mxGeometry x="830" y="310" width="60" height="30" as="geometry" />
        </mxCell>
        <mxCell id="M16_s9FFf0gk96BNt9Zh-74" value="" style="verticalLabelPosition=bottom;verticalAlign=top;html=1;shape=mxgraph.basic.rect;fillColor2=none;strokeWidth=1;size=20;indent=5;fillColor=none;" vertex="1" parent="1">
          <mxGeometry x="830" y="480" width="350" height="50" as="geometry" />
        </mxCell>
        <mxCell id="M16_s9FFf0gk96BNt9Zh-75" value="传输层" style="text;html=1;align=center;verticalAlign=middle;resizable=0;points=[];autosize=1;strokeColor=none;fillColor=none;" vertex="1" parent="1">
          <mxGeometry x="830" y="385" width="60" height="30" as="geometry" />
        </mxCell>
        <mxCell id="M16_s9FFf0gk96BNt9Zh-76" value="TCP/IP" style="text;html=1;align=center;verticalAlign=middle;resizable=0;points=[];autosize=1;strokeColor=none;fillColor=none;" vertex="1" parent="1">
          <mxGeometry x="910" y="400" width="60" height="30" as="geometry" />
        </mxCell>
        <mxCell id="M16_s9FFf0gk96BNt9Zh-77" value="" style="verticalLabelPosition=bottom;verticalAlign=top;html=1;shape=mxgraph.basic.rect;fillColor2=none;strokeWidth=1;size=20;indent=5;fillColor=none;" vertex="1" parent="1">
          <mxGeometry x="880" y="490" width="100" height="30" as="geometry" />
        </mxCell>
        <mxCell id="M16_s9FFf0gk96BNt9Zh-78" value="数据交换协议" style="text;html=1;align=center;verticalAlign=middle;resizable=0;points=[];autosize=1;strokeColor=none;fillColor=none;" vertex="1" parent="1">
          <mxGeometry x="945" y="340" width="100" height="30" as="geometry" />
        </mxCell>
        <mxCell id="M16_s9FFf0gk96BNt9Zh-79" style="edgeStyle=orthogonalEdgeStyle;rounded=0;orthogonalLoop=1;jettySize=auto;html=1;" edge="1" parent="1" source="M16_s9FFf0gk96BNt9Zh-70" target="M16_s9FFf0gk96BNt9Zh-83">
          <mxGeometry relative="1" as="geometry" />
        </mxCell>
        <mxCell id="M16_s9FFf0gk96BNt9Zh-80" style="rounded=0;orthogonalLoop=1;jettySize=auto;html=1;exitX=0.537;exitY=1.017;exitDx=0;exitDy=0;exitPerimeter=0;entryX=0.822;entryY=0.017;entryDx=0;entryDy=0;entryPerimeter=0;" edge="1" parent="1" source="M16_s9FFf0gk96BNt9Zh-70" target="M16_s9FFf0gk96BNt9Zh-77">
          <mxGeometry relative="1" as="geometry" />
        </mxCell>
        <mxCell id="M16_s9FFf0gk96BNt9Zh-81" value="处理传输内容" style="text;html=1;align=center;verticalAlign=middle;resizable=0;points=[];autosize=1;strokeColor=none;fillColor=none;" vertex="1" parent="1">
          <mxGeometry x="835" y="340" width="100" height="30" as="geometry" />
        </mxCell>
        <mxCell id="M16_s9FFf0gk96BNt9Zh-82" style="edgeStyle=orthogonalEdgeStyle;rounded=0;orthogonalLoop=1;jettySize=auto;html=1;" edge="1" parent="1" source="M16_s9FFf0gk96BNt9Zh-83" target="M16_s9FFf0gk96BNt9Zh-70">
          <mxGeometry relative="1" as="geometry">
            <Array as="points">
              <mxPoint x="935" y="350" />
              <mxPoint x="935" y="350" />
            </Array>
          </mxGeometry>
        </mxCell>
        <mxCell id="M16_s9FFf0gk96BNt9Zh-83" value="" style="verticalLabelPosition=bottom;verticalAlign=top;html=1;shape=mxgraph.basic.rect;fillColor2=none;strokeWidth=1;size=20;indent=5;fillColor=none;" vertex="1" parent="1">
          <mxGeometry x="845" y="340" width="80" height="30" as="geometry" />
        </mxCell>
        <mxCell id="M16_s9FFf0gk96BNt9Zh-84" style="rounded=0;orthogonalLoop=1;jettySize=auto;html=1;" edge="1" parent="1" source="M16_s9FFf0gk96BNt9Zh-77" target="M16_s9FFf0gk96BNt9Zh-70">
          <mxGeometry relative="1" as="geometry" />
        </mxCell>
        <mxCell id="M16_s9FFf0gk96BNt9Zh-88" value="" style="rounded=0;whiteSpace=wrap;html=1;fontFamily=Helvetica;fontSize=11;fontColor=default;" vertex="1" parent="1">
          <mxGeometry x="915" y="120" width="120" height="60" as="geometry" />
        </mxCell>
        <mxCell id="M16_s9FFf0gk96BNt9Zh-89" value="" style="swimlane;startSize=0;fontFamily=Helvetica;fontSize=11;fontColor=default;" vertex="1" parent="1">
          <mxGeometry x="1330" y="270" width="430" height="320" as="geometry" />
        </mxCell>
        <mxCell id="M16_s9FFf0gk96BNt9Zh-71" value="主控端系统程序" style="text;html=1;align=center;verticalAlign=middle;resizable=0;points=[];autosize=1;strokeColor=none;fillColor=none;" vertex="1" parent="M16_s9FFf0gk96BNt9Zh-89">
          <mxGeometry width="110" height="30" as="geometry" />
        </mxCell>
        <mxCell id="M16_s9FFf0gk96BNt9Zh-90" value="" style="swimlane;startSize=0;fontFamily=Helvetica;fontSize=11;fontColor=default;" vertex="1" parent="M16_s9FFf0gk96BNt9Zh-89">
          <mxGeometry x="10" y="40" width="410" height="110" as="geometry" />
        </mxCell>
        <mxCell id="M16_s9FFf0gk96BNt9Zh-91" value="图形界面(QML)" style="text;html=1;align=center;verticalAlign=middle;resizable=0;points=[];autosize=1;strokeColor=none;fillColor=none;" vertex="1" parent="M16_s9FFf0gk96BNt9Zh-90">
          <mxGeometry width="110" height="30" as="geometry" />
        </mxCell>
        <mxCell id="M16_s9FFf0gk96BNt9Zh-95" value="状态信息面板" style="rounded=0;whiteSpace=wrap;html=1;fontFamily=Helvetica;fontSize=11;fontColor=default;" vertex="1" parent="M16_s9FFf0gk96BNt9Zh-90">
          <mxGeometry x="10" y="30" width="90" height="40" as="geometry" />
        </mxCell>
        <mxCell id="M16_s9FFf0gk96BNt9Zh-96" value="被控设备管理面板" style="rounded=0;whiteSpace=wrap;html=1;fontFamily=Helvetica;fontSize=11;fontColor=default;" vertex="1" parent="M16_s9FFf0gk96BNt9Zh-90">
          <mxGeometry x="110" y="30" width="90" height="40" as="geometry" />
        </mxCell>
        <mxCell id="M16_s9FFf0gk96BNt9Zh-97" value="AI助手面板" style="rounded=0;whiteSpace=wrap;html=1;fontFamily=Helvetica;fontSize=11;fontColor=default;" vertex="1" parent="M16_s9FFf0gk96BNt9Zh-90">
          <mxGeometry x="210" y="30" width="90" height="40" as="geometry" />
        </mxCell>
        <mxCell id="M16_s9FFf0gk96BNt9Zh-98" value="设置面板" style="rounded=0;whiteSpace=wrap;html=1;fontFamily=Helvetica;fontSize=11;fontColor=default;" vertex="1" parent="M16_s9FFf0gk96BNt9Zh-90">
          <mxGeometry x="310" y="30" width="90" height="40" as="geometry" />
        </mxCell>
        <mxCell id="M16_s9FFf0gk96BNt9Zh-93" value="" style="swimlane;startSize=0;fontFamily=Helvetica;fontSize=11;fontColor=default;" vertex="1" parent="M16_s9FFf0gk96BNt9Zh-89">
          <mxGeometry x="10" y="170" width="410" height="130" as="geometry" />
        </mxCell>
        <mxCell id="M16_s9FFf0gk96BNt9Zh-92" value="后端逻辑处理 (C++ Qt)" style="text;html=1;align=center;verticalAlign=middle;resizable=0;points=[];autosize=1;strokeColor=none;fillColor=none;fontSize=11;fontFamily=Helvetica;fontColor=default;" vertex="1" parent="M16_s9FFf0gk96BNt9Zh-93">
          <mxGeometry width="140" height="30" as="geometry" />
        </mxCell>
        <mxCell id="M16_s9FFf0gk96BNt9Zh-111" style="edgeStyle=none;shape=connector;rounded=0;orthogonalLoop=1;jettySize=auto;html=1;entryX=0.5;entryY=0;entryDx=0;entryDy=0;labelBackgroundColor=default;strokeColor=default;fontFamily=Helvetica;fontSize=11;fontColor=default;endArrow=none;endFill=0;" edge="1" parent="M16_s9FFf0gk96BNt9Zh-93" source="M16_s9FFf0gk96BNt9Zh-99" target="M16_s9FFf0gk96BNt9Zh-100">
          <mxGeometry relative="1" as="geometry" />
        </mxCell>
        <mxCell id="M16_s9FFf0gk96BNt9Zh-112" style="edgeStyle=none;shape=connector;rounded=0;orthogonalLoop=1;jettySize=auto;html=1;entryX=0.5;entryY=0;entryDx=0;entryDy=0;labelBackgroundColor=default;strokeColor=default;fontFamily=Helvetica;fontSize=11;fontColor=default;endArrow=none;endFill=0;" edge="1" parent="M16_s9FFf0gk96BNt9Zh-93" source="M16_s9FFf0gk96BNt9Zh-99" target="M16_s9FFf0gk96BNt9Zh-102">
          <mxGeometry relative="1" as="geometry">
            <mxPoint x="171.66666666666652" y="70" as="sourcePoint" />
          </mxGeometry>
        </mxCell>
        <mxCell id="M16_s9FFf0gk96BNt9Zh-113" style="edgeStyle=none;shape=connector;rounded=0;orthogonalLoop=1;jettySize=auto;html=1;entryX=0.5;entryY=0;entryDx=0;entryDy=0;labelBackgroundColor=default;strokeColor=default;fontFamily=Helvetica;fontSize=11;fontColor=default;endArrow=none;endFill=0;" edge="1" parent="M16_s9FFf0gk96BNt9Zh-93" source="M16_s9FFf0gk96BNt9Zh-99" target="M16_s9FFf0gk96BNt9Zh-104">
          <mxGeometry relative="1" as="geometry" />
        </mxCell>
        <mxCell id="M16_s9FFf0gk96BNt9Zh-99" value="处理接口" style="rounded=0;whiteSpace=wrap;html=1;fontFamily=Helvetica;fontSize=11;fontColor=default;" vertex="1" parent="M16_s9FFf0gk96BNt9Zh-93">
          <mxGeometry x="160" y="10" width="90" height="40" as="geometry" />
        </mxCell>
        <mxCell id="M16_s9FFf0gk96BNt9Zh-100" value="通信模块" style="rounded=0;whiteSpace=wrap;html=1;fontFamily=Helvetica;fontSize=11;fontColor=default;" vertex="1" parent="M16_s9FFf0gk96BNt9Zh-93">
          <mxGeometry x="10" y="80" width="90" height="30" as="geometry" />
        </mxCell>
        <mxCell id="M16_s9FFf0gk96BNt9Zh-102" value="设备管理模块" style="rounded=0;whiteSpace=wrap;html=1;fontFamily=Helvetica;fontSize=11;fontColor=default;" vertex="1" parent="M16_s9FFf0gk96BNt9Zh-93">
          <mxGeometry x="110" y="80" width="90" height="30" as="geometry" />
        </mxCell>
        <mxCell id="M16_s9FFf0gk96BNt9Zh-104" value="AI助手模块" style="rounded=0;whiteSpace=wrap;html=1;fontFamily=Helvetica;fontSize=11;fontColor=default;" vertex="1" parent="M16_s9FFf0gk96BNt9Zh-93">
          <mxGeometry x="310" y="80" width="90" height="30" as="geometry" />
        </mxCell>
        <mxCell id="M16_s9FFf0gk96BNt9Zh-105" value="......" style="text;html=1;align=center;verticalAlign=middle;resizable=0;points=[];autosize=1;strokeColor=none;fillColor=none;fontSize=20;fontFamily=Helvetica;fontColor=default;" vertex="1" parent="M16_s9FFf0gk96BNt9Zh-93">
          <mxGeometry x="230" y="75" width="60" height="40" as="geometry" />
        </mxCell>
        <mxCell id="M16_s9FFf0gk96BNt9Zh-107" style="edgeStyle=none;shape=connector;rounded=0;orthogonalLoop=1;jettySize=auto;html=1;entryX=0.5;entryY=1;entryDx=0;entryDy=0;labelBackgroundColor=default;strokeColor=default;fontFamily=Helvetica;fontSize=11;fontColor=default;endArrow=none;endFill=0;" edge="1" parent="M16_s9FFf0gk96BNt9Zh-89" source="M16_s9FFf0gk96BNt9Zh-99" target="M16_s9FFf0gk96BNt9Zh-95">
          <mxGeometry relative="1" as="geometry" />
        </mxCell>
        <mxCell id="M16_s9FFf0gk96BNt9Zh-108" style="edgeStyle=none;shape=connector;rounded=0;orthogonalLoop=1;jettySize=auto;html=1;entryX=0.5;entryY=1;entryDx=0;entryDy=0;labelBackgroundColor=default;strokeColor=default;fontFamily=Helvetica;fontSize=11;fontColor=default;endArrow=none;endFill=0;" edge="1" parent="M16_s9FFf0gk96BNt9Zh-89" source="M16_s9FFf0gk96BNt9Zh-99" target="M16_s9FFf0gk96BNt9Zh-96">
          <mxGeometry relative="1" as="geometry" />
        </mxCell>
        <mxCell id="M16_s9FFf0gk96BNt9Zh-109" style="edgeStyle=none;shape=connector;rounded=0;orthogonalLoop=1;jettySize=auto;html=1;entryX=0.5;entryY=1;entryDx=0;entryDy=0;labelBackgroundColor=default;strokeColor=default;fontFamily=Helvetica;fontSize=11;fontColor=default;endArrow=none;endFill=0;" edge="1" parent="M16_s9FFf0gk96BNt9Zh-89" source="M16_s9FFf0gk96BNt9Zh-99" target="M16_s9FFf0gk96BNt9Zh-97">
          <mxGeometry relative="1" as="geometry" />
        </mxCell>
        <mxCell id="M16_s9FFf0gk96BNt9Zh-110" style="edgeStyle=none;shape=connector;rounded=0;orthogonalLoop=1;jettySize=auto;html=1;entryX=0.5;entryY=1;entryDx=0;entryDy=0;labelBackgroundColor=default;strokeColor=default;fontFamily=Helvetica;fontSize=11;fontColor=default;endArrow=none;endFill=0;" edge="1" parent="M16_s9FFf0gk96BNt9Zh-89" source="M16_s9FFf0gk96BNt9Zh-99" target="M16_s9FFf0gk96BNt9Zh-98">
          <mxGeometry relative="1" as="geometry" />
        </mxCell>
        <mxCell id="M16_s9FFf0gk96BNt9Zh-94" value="" style="swimlane;startSize=0;fontFamily=Helvetica;fontSize=11;fontColor=default;" vertex="1" parent="1">
          <mxGeometry x="1150" y="585" width="140" height="80" as="geometry" />
        </mxCell>
        <mxCell id="M16_s9FFf0gk96BNt9Zh-116" value="" style="swimlane;startSize=0;fontFamily=Helvetica;fontSize=11;fontColor=default;" vertex="1" parent="1">
          <mxGeometry x="1760" y="680" width="360" height="310" as="geometry" />
        </mxCell>
        <mxCell id="M16_s9FFf0gk96BNt9Zh-117" value="被控端系统程序" style="text;html=1;align=center;verticalAlign=middle;resizable=0;points=[];autosize=1;strokeColor=none;fillColor=none;fontSize=11;fontFamily=Helvetica;fontColor=default;" vertex="1" parent="M16_s9FFf0gk96BNt9Zh-116">
          <mxGeometry width="100" height="30" as="geometry" />
        </mxCell>
        <mxCell id="M16_s9FFf0gk96BNt9Zh-162" style="edgeStyle=none;shape=connector;rounded=0;orthogonalLoop=1;jettySize=auto;html=1;exitX=1;exitY=0.5;exitDx=0;exitDy=0;entryX=0;entryY=0.5;entryDx=0;entryDy=0;labelBackgroundColor=default;strokeColor=default;fontFamily=Helvetica;fontSize=11;fontColor=default;endArrow=classic;endFill=1;" edge="1" parent="M16_s9FFf0gk96BNt9Zh-116" source="M16_s9FFf0gk96BNt9Zh-118" target="M16_s9FFf0gk96BNt9Zh-148">
          <mxGeometry relative="1" as="geometry" />
        </mxCell>
        <mxCell id="M16_s9FFf0gk96BNt9Zh-118" value="" style="swimlane;startSize=0;fontFamily=Helvetica;fontSize=11;fontColor=default;" vertex="1" parent="M16_s9FFf0gk96BNt9Zh-116">
          <mxGeometry x="20" y="150" width="120" height="140" as="geometry" />
        </mxCell>
        <mxCell id="M16_s9FFf0gk96BNt9Zh-119" value="主程序循环" style="text;html=1;align=center;verticalAlign=middle;resizable=0;points=[];autosize=1;strokeColor=none;fillColor=none;fontSize=11;fontFamily=Helvetica;fontColor=default;" vertex="1" parent="M16_s9FFf0gk96BNt9Zh-118">
          <mxGeometry width="80" height="30" as="geometry" />
        </mxCell>
        <mxCell id="M16_s9FFf0gk96BNt9Zh-120" value="UDP侦听" style="rounded=0;whiteSpace=wrap;html=1;fontFamily=Helvetica;fontSize=11;fontColor=default;" vertex="1" parent="M16_s9FFf0gk96BNt9Zh-118">
          <mxGeometry x="20" y="30" width="80" height="20" as="geometry" />
        </mxCell>
        <mxCell id="M16_s9FFf0gk96BNt9Zh-122" value="TCP服务器侦听" style="rounded=0;whiteSpace=wrap;html=1;fontFamily=Helvetica;fontSize=11;fontColor=default;" vertex="1" parent="M16_s9FFf0gk96BNt9Zh-118">
          <mxGeometry x="20" y="60" width="80" height="20" as="geometry" />
        </mxCell>
        <mxCell id="M16_s9FFf0gk96BNt9Zh-140" value="传感器信息获取" style="rounded=0;whiteSpace=wrap;html=1;fontFamily=Helvetica;fontSize=11;fontColor=default;" vertex="1" parent="M16_s9FFf0gk96BNt9Zh-118">
          <mxGeometry x="20" y="90" width="80" height="20" as="geometry" />
        </mxCell>
        <mxCell id="M16_s9FFf0gk96BNt9Zh-141" style="edgeStyle=none;shape=connector;rounded=0;orthogonalLoop=1;jettySize=auto;html=1;exitX=0.144;exitY=0.989;exitDx=0;exitDy=0;labelBackgroundColor=default;strokeColor=default;fontFamily=Helvetica;fontSize=11;fontColor=default;endArrow=classic;endFill=1;exitPerimeter=0;entryX=0.753;entryY=0.003;entryDx=0;entryDy=0;entryPerimeter=0;" edge="1" parent="M16_s9FFf0gk96BNt9Zh-116" source="M16_s9FFf0gk96BNt9Zh-123" target="M16_s9FFf0gk96BNt9Zh-119">
          <mxGeometry relative="1" as="geometry" />
        </mxCell>
        <mxCell id="M16_s9FFf0gk96BNt9Zh-123" value="" style="swimlane;startSize=0;fontFamily=Helvetica;fontSize=11;fontColor=default;" vertex="1" parent="M16_s9FFf0gk96BNt9Zh-116">
          <mxGeometry x="40" y="30" width="280" height="90" as="geometry" />
        </mxCell>
        <mxCell id="M16_s9FFf0gk96BNt9Zh-124" value="上电初始化" style="text;html=1;align=center;verticalAlign=middle;resizable=0;points=[];autosize=1;strokeColor=none;fillColor=none;fontSize=11;fontFamily=Helvetica;fontColor=default;" vertex="1" parent="M16_s9FFf0gk96BNt9Zh-123">
          <mxGeometry width="80" height="30" as="geometry" />
        </mxCell>
        <mxCell id="M16_s9FFf0gk96BNt9Zh-134" value="串口初始化" style="rounded=0;whiteSpace=wrap;html=1;fontFamily=Helvetica;fontSize=11;fontColor=default;" vertex="1" parent="M16_s9FFf0gk96BNt9Zh-123">
          <mxGeometry x="10" y="30" width="80" height="20" as="geometry" />
        </mxCell>
        <mxCell id="M16_s9FFf0gk96BNt9Zh-135" value="WIFI连接" style="rounded=0;whiteSpace=wrap;html=1;fontFamily=Helvetica;fontSize=11;fontColor=default;" vertex="1" parent="M16_s9FFf0gk96BNt9Zh-123">
          <mxGeometry x="10" y="60" width="80" height="20" as="geometry" />
        </mxCell>
        <mxCell id="M16_s9FFf0gk96BNt9Zh-136" value="AP模式配网" style="rounded=0;whiteSpace=wrap;html=1;fontFamily=Helvetica;fontSize=11;fontColor=default;" vertex="1" parent="M16_s9FFf0gk96BNt9Zh-123">
          <mxGeometry x="100" y="30" width="80" height="20" as="geometry" />
        </mxCell>
        <mxCell id="M16_s9FFf0gk96BNt9Zh-137" value="OLED显示" style="rounded=0;whiteSpace=wrap;html=1;fontFamily=Helvetica;fontSize=11;fontColor=default;" vertex="1" parent="M16_s9FFf0gk96BNt9Zh-123">
          <mxGeometry x="100" y="60" width="80" height="20" as="geometry" />
        </mxCell>
        <mxCell id="M16_s9FFf0gk96BNt9Zh-138" value="TCP/UDP服务" style="rounded=0;whiteSpace=wrap;html=1;fontFamily=Helvetica;fontSize=11;fontColor=default;" vertex="1" parent="M16_s9FFf0gk96BNt9Zh-123">
          <mxGeometry x="190" y="30" width="80" height="20" as="geometry" />
        </mxCell>
        <mxCell id="M16_s9FFf0gk96BNt9Zh-139" value="其他功能初始化" style="rounded=0;whiteSpace=wrap;html=1;fontFamily=Helvetica;fontSize=11;fontColor=default;" vertex="1" parent="M16_s9FFf0gk96BNt9Zh-123">
          <mxGeometry x="190" y="60" width="80" height="20" as="geometry" />
        </mxCell>
        <mxCell id="M16_s9FFf0gk96BNt9Zh-163" style="edgeStyle=none;shape=connector;rounded=0;orthogonalLoop=1;jettySize=auto;html=1;labelBackgroundColor=default;strokeColor=default;fontFamily=Helvetica;fontSize=11;fontColor=default;endArrow=classic;endFill=1;exitX=0;exitY=0.318;exitDx=0;exitDy=0;exitPerimeter=0;" edge="1" parent="M16_s9FFf0gk96BNt9Zh-116" source="M16_s9FFf0gk96BNt9Zh-148">
          <mxGeometry relative="1" as="geometry">
            <mxPoint x="140" y="200" as="targetPoint" />
          </mxGeometry>
        </mxCell>
        <mxCell id="M16_s9FFf0gk96BNt9Zh-148" value="" style="swimlane;startSize=0;fontFamily=Helvetica;fontSize=11;fontColor=default;" vertex="1" parent="M16_s9FFf0gk96BNt9Zh-116">
          <mxGeometry x="170" y="165" width="180" height="110" as="geometry" />
        </mxCell>
        <mxCell id="M16_s9FFf0gk96BNt9Zh-149" value="被控端功能模块" style="text;html=1;align=center;verticalAlign=middle;resizable=0;points=[];autosize=1;strokeColor=none;fillColor=none;fontSize=11;fontFamily=Helvetica;fontColor=default;" vertex="1" parent="M16_s9FFf0gk96BNt9Zh-148">
          <mxGeometry width="100" height="30" as="geometry" />
        </mxCell>
        <mxCell id="M16_s9FFf0gk96BNt9Zh-150" value="开关功能模块" style="rounded=0;whiteSpace=wrap;html=1;fontFamily=Helvetica;fontSize=11;fontColor=default;" vertex="1" parent="M16_s9FFf0gk96BNt9Zh-148">
          <mxGeometry x="10" y="35" width="70" height="25" as="geometry" />
        </mxCell>
        <mxCell id="M16_s9FFf0gk96BNt9Zh-152" value="显示功能模块" style="rounded=0;whiteSpace=wrap;html=1;fontFamily=Helvetica;fontSize=11;fontColor=default;" vertex="1" parent="M16_s9FFf0gk96BNt9Zh-148">
          <mxGeometry x="10" y="65" width="70" height="25" as="geometry" />
        </mxCell>
        <mxCell id="M16_s9FFf0gk96BNt9Zh-158" value="传感器功能模块" style="rounded=0;whiteSpace=wrap;html=1;fontFamily=Helvetica;fontSize=11;fontColor=default;" vertex="1" parent="M16_s9FFf0gk96BNt9Zh-148">
          <mxGeometry x="90" y="35" width="80" height="25" as="geometry" />
        </mxCell>
        <mxCell id="M16_s9FFf0gk96BNt9Zh-160" value="&lt;font style=&quot;font-size: 20px;&quot;&gt;......&lt;/font&gt;" style="text;html=1;align=center;verticalAlign=middle;resizable=0;points=[];autosize=1;strokeColor=none;fillColor=none;fontSize=11;fontFamily=Helvetica;fontColor=default;" vertex="1" parent="M16_s9FFf0gk96BNt9Zh-148">
          <mxGeometry x="90" y="50" width="60" height="40" as="geometry" />
        </mxCell>
        <mxCell id="M16_s9FFf0gk96BNt9Zh-147" value="被控端功能模块" style="rounded=0;whiteSpace=wrap;html=1;fontFamily=Helvetica;fontSize=11;fontColor=default;" vertex="1" parent="1">
          <mxGeometry x="2180" y="770" width="80" height="30" as="geometry" />
        </mxCell>
      </root>
    </mxGraphModel>
  </diagram>
</mxfile>
